<svg width="94" height="15" viewBox="0 0 94 15" fill="none" xmlns="http://www.w3.org/2000/svg">
<g id="Group 56">
<path id="twitter" d="M18 1.66066C17.3381 1.94128 16.627 2.1309 15.8794 2.2166C16.6508 1.77503 17.2278 1.08003 17.503 0.261302C16.7783 0.673137 15.9851 0.963023 15.158 1.11836C14.6018 0.550172 13.8651 0.173569 13.0623 0.0470186C12.2594 -0.0795316 11.4354 0.0510517 10.7181 0.418495C10.0007 0.785938 9.43028 1.36968 9.09525 2.0791C8.76022 2.78852 8.67936 3.58391 8.86523 4.3418C7.39683 4.27126 5.96033 3.90611 4.64898 3.27003C3.33762 2.63395 2.18071 1.74117 1.25332 0.649633C0.936228 1.17297 0.753898 1.77973 0.753898 2.42594C0.753544 3.00767 0.903276 3.58049 1.18981 4.09358C1.47634 4.60667 1.89082 5.04416 2.39646 5.36724C1.81005 5.34938 1.23658 5.19778 0.723773 4.92506V4.97056C0.723714 5.78647 1.0187 6.57726 1.55868 7.20877C2.09865 7.84027 2.85036 8.27359 3.68625 8.43519C3.14226 8.57605 2.57192 8.5968 2.01832 8.49587C2.25416 9.19791 2.71355 9.81181 3.33219 10.2516C3.95082 10.6915 4.69772 10.9352 5.46833 10.9487C4.16018 11.9312 2.54461 12.4642 0.881529 12.4618C0.586931 12.4619 0.292582 12.4455 0 12.4125C1.68813 13.451 3.65322 14.0021 5.66018 14C12.454 14 16.168 8.61647 16.168 3.9474C16.168 3.79571 16.164 3.6425 16.1569 3.49081C16.8793 2.99097 17.5029 2.37201 17.9984 1.66293L18 1.66066Z" fill="#FDFEFF"/>
<path id="facebook" d="M51.1971 15V8.16893H53.5664L53.9186 5.49434H51.1971V3.79074C51.1971 3.01895 51.4182 2.49053 52.557 2.49053H54V0.105991C53.2979 0.0328054 52.5922 -0.00253208 51.886 0.000140994C49.7918 0.000140994 48.3539 1.24367 48.3539 3.52653V5.48934H46V8.16392H48.359V15H51.1971Z" fill="#FDFEFF"/>
<path id="insta" fill-rule="evenodd" clip-rule="evenodd" d="M85.2003 5.8783H87.8001V7.1733C88.1746 6.4285 89.135 5.7593 90.5777 5.7593C93.3434 5.7593 94 7.2419 94 9.9621V15H91.2V10.5816C91.2 9.0325 90.8255 8.1589 89.8721 8.1589C88.5498 8.1589 88.0003 9.1004 88.0003 10.5809V15H85.2003V5.8783ZM80.399 14.881H83.199V5.7593H80.399V14.881ZM83.6001 2.785C83.6002 3.01969 83.5537 3.25206 83.4632 3.46861C83.3727 3.68516 83.2401 3.88156 83.073 4.0464C82.7345 4.38284 82.2763 4.57116 81.799 4.57C81.3226 4.56968 80.8654 4.38184 80.5264 4.0471C80.3599 3.8817 80.2278 3.68508 80.1374 3.4685C80.0471 3.25193 80.0004 3.01966 80 2.785C80 2.3111 80.189 1.8575 80.5271 1.5229C80.8658 1.18771 81.3232 0.999791 81.7997 1C82.2771 1 82.7349 1.1883 83.073 1.5229C83.4104 1.8575 83.6001 2.3111 83.6001 2.785Z" fill="#FDFEFF"/>
</g>
</svg>
